{
	"patcher" : 	{
		"fileversion" : 1,
		"appversion" : 		{
			"major" : 8,
			"minor" : 0,
			"revision" : 5,
			"architecture" : "x64",
			"modernui" : 1
		}
,
		"classnamespace" : "box",
		"rect" : [ 1181.0, 79.0, 1197.0, 838.0 ],
		"bglocked" : 0,
		"openinpresentation" : 0,
		"default_fontsize" : 12.0,
		"default_fontface" : 0,
		"default_fontname" : "Arial",
		"gridonopen" : 1,
		"gridsize" : [ 15.0, 15.0 ],
		"gridsnaponopen" : 1,
		"objectsnaponopen" : 1,
		"statusbarvisible" : 2,
		"toolbarvisible" : 1,
		"lefttoolbarpinned" : 0,
		"toptoolbarpinned" : 0,
		"righttoolbarpinned" : 0,
		"bottomtoolbarpinned" : 0,
		"toolbars_unpinned_last_save" : 0,
		"tallnewobj" : 0,
		"boxanimatetime" : 200,
		"enablehscroll" : 1,
		"enablevscroll" : 1,
		"devicewidth" : 0.0,
		"description" : "",
		"digest" : "",
		"tags" : "",
		"style" : "",
		"subpatcher_template" : "",
		"boxes" : [ 			{
				"box" : 				{
					"id" : "obj-7",
					"maxclass" : "comment",
					"numinlets" : 1,
					"numoutlets" : 0,
					"patching_rect" : [ 191.0, 21.0, 345.0, 20.0 ],
					"text" : "from https://cycling74.com/forums/8-0-4-new-jitter-features"
				}

			}
, 			{
				"box" : 				{
					"attr" : "voronoise_amt",
					"id" : "obj-58",
					"maxclass" : "attrui",
					"numinlets" : 1,
					"numoutlets" : 1,
					"outlettype" : [ "" ],
					"patching_rect" : [ 575.0, 260.09521484375, 164.0, 22.0 ]
				}

			}
, 			{
				"box" : 				{
					"attr" : "colorize",
					"id" : "obj-33",
					"maxclass" : "attrui",
					"numinlets" : 1,
					"numoutlets" : 1,
					"outlettype" : [ "" ],
					"patching_rect" : [ 530.5, 398.0, 150.0, 22.0 ]
				}

			}
, 			{
				"box" : 				{
					"attr" : "distortion",
					"id" : "obj-34",
					"maxclass" : "attrui",
					"numinlets" : 1,
					"numoutlets" : 1,
					"outlettype" : [ "" ],
					"patching_rect" : [ 530.5, 356.0, 150.0, 22.0 ]
				}

			}
, 			{
				"box" : 				{
					"attr" : "basis.inner",
					"id" : "obj-35",
					"maxclass" : "attrui",
					"numinlets" : 1,
					"numoutlets" : 1,
					"outlettype" : [ "" ],
					"patching_rect" : [ 530.5, 308.0, 253.0, 22.0 ]
				}

			}
, 			{
				"box" : 				{
					"attr" : "basis.outer",
					"id" : "obj-36",
					"maxclass" : "attrui",
					"numinlets" : 1,
					"numoutlets" : 1,
					"outlettype" : [ "" ],
					"patching_rect" : [ 530.5, 332.0, 253.0, 22.0 ]
				}

			}
, 			{
				"box" : 				{
					"attr" : "voronoi_crackle",
					"id" : "obj-37",
					"maxclass" : "attrui",
					"numinlets" : 1,
					"numoutlets" : 1,
					"outlettype" : [ "" ],
					"patching_rect" : [ 575.0, 164.09521484375, 230.0, 22.0 ],
					"text_width" : 108.0
				}

			}
, 			{
				"box" : 				{
					"attr" : "voronoi_jitter",
					"id" : "obj-52",
					"maxclass" : "attrui",
					"numinlets" : 1,
					"numoutlets" : 1,
					"outlettype" : [ "" ],
					"patching_rect" : [ 575.0, 188.09521484375, 164.0, 22.0 ]
				}

			}
, 			{
				"box" : 				{
					"attr" : "palette",
					"id" : "obj-54",
					"maxclass" : "attrui",
					"numinlets" : 1,
					"numoutlets" : 1,
					"outlettype" : [ "" ],
					"patching_rect" : [ 530.5, 422.0, 223.0, 22.0 ],
					"text_width" : 63.0
				}

			}
, 			{
				"box" : 				{
					"attr" : "voronoi_shade",
					"id" : "obj-55",
					"maxclass" : "attrui",
					"numinlets" : 1,
					"numoutlets" : 1,
					"outlettype" : [ "" ],
					"patching_rect" : [ 575.0, 212.09521484375, 164.0, 22.0 ]
				}

			}
, 			{
				"box" : 				{
					"attr" : "voronoi_smooth",
					"id" : "obj-57",
					"maxclass" : "attrui",
					"numinlets" : 1,
					"numoutlets" : 1,
					"outlettype" : [ "" ],
					"patching_rect" : [ 575.0, 236.09521484375, 164.0, 22.0 ],
					"text_width" : 109.0
				}

			}
, 			{
				"box" : 				{
					"attr" : "ambient",
					"id" : "obj-18",
					"maxclass" : "attrui",
					"numinlets" : 1,
					"numoutlets" : 1,
					"outlettype" : [ "" ],
					"patching_rect" : [ 882.0, 208.0, 150.0, 22.0 ]
				}

			}
, 			{
				"box" : 				{
					"attr" : "speed",
					"id" : "obj-16",
					"maxclass" : "attrui",
					"numinlets" : 1,
					"numoutlets" : 1,
					"outlettype" : [ "" ],
					"patching_rect" : [ 342.0, 164.09521484375, 113.0, 22.0 ],
					"text_width" : 66.0
				}

			}
, 			{
				"box" : 				{
					"attr" : "high_res",
					"id" : "obj-164",
					"maxclass" : "attrui",
					"numinlets" : 1,
					"numoutlets" : 1,
					"outlettype" : [ "" ],
					"patching_rect" : [ 63.0, 21.0, 106.5, 22.0 ],
					"text_width" : 69.0
				}

			}
, 			{
				"box" : 				{
					"attr" : "gain",
					"id" : "obj-162",
					"maxclass" : "attrui",
					"numinlets" : 1,
					"numoutlets" : 1,
					"outlettype" : [ "" ],
					"patching_rect" : [ 403.5, 462.25, 110.0, 22.0 ],
					"text_width" : 56.75006103515625
				}

			}
, 			{
				"box" : 				{
					"id" : "obj-158",
					"maxclass" : "newobj",
					"numinlets" : 1,
					"numoutlets" : 2,
					"outlettype" : [ "jit_gl_texture", "" ],
					"patcher" : 					{
						"fileversion" : 1,
						"appversion" : 						{
							"major" : 8,
							"minor" : 0,
							"revision" : 5,
							"architecture" : "x64",
							"modernui" : 1
						}
,
						"classnamespace" : "jit.gen",
						"rect" : [ 699.0, 319.0, 215.0, 290.0 ],
						"bglocked" : 0,
						"openinpresentation" : 0,
						"default_fontsize" : 12.0,
						"default_fontface" : 0,
						"default_fontname" : "Arial",
						"gridonopen" : 1,
						"gridsize" : [ 15.0, 15.0 ],
						"gridsnaponopen" : 1,
						"objectsnaponopen" : 1,
						"statusbarvisible" : 2,
						"toolbarvisible" : 1,
						"lefttoolbarpinned" : 0,
						"toptoolbarpinned" : 0,
						"righttoolbarpinned" : 0,
						"bottomtoolbarpinned" : 0,
						"toolbars_unpinned_last_save" : 0,
						"tallnewobj" : 0,
						"boxanimatetime" : 200,
						"enablehscroll" : 1,
						"enablevscroll" : 1,
						"devicewidth" : 0.0,
						"description" : "",
						"digest" : "",
						"tags" : "",
						"style" : "",
						"subpatcher_template" : "",
						"boxes" : [ 							{
								"box" : 								{
									"id" : "obj-2",
									"maxclass" : "newobj",
									"numinlets" : 0,
									"numoutlets" : 1,
									"outlettype" : [ "" ],
									"patching_rect" : [ 96.0, 46.0, 82.0, 22.0 ],
									"text" : "param gain 0."
								}

							}
, 							{
								"box" : 								{
									"id" : "obj-1",
									"maxclass" : "newobj",
									"numinlets" : 0,
									"numoutlets" : 1,
									"outlettype" : [ "" ],
									"patching_rect" : [ 27.0, 46.0, 28.0, 22.0 ],
									"text" : "in 1"
								}

							}
, 							{
								"box" : 								{
									"id" : "obj-3",
									"maxclass" : "newobj",
									"numinlets" : 2,
									"numoutlets" : 1,
									"outlettype" : [ "" ],
									"patching_rect" : [ 27.0, 113.0, 29.5, 22.0 ],
									"text" : "+"
								}

							}
, 							{
								"box" : 								{
									"id" : "obj-4",
									"maxclass" : "newobj",
									"numinlets" : 1,
									"numoutlets" : 0,
									"patching_rect" : [ 27.0, 161.0, 35.0, 22.0 ],
									"text" : "out 1"
								}

							}
 ],
						"lines" : [ 							{
								"patchline" : 								{
									"destination" : [ "obj-3", 0 ],
									"source" : [ "obj-1", 0 ]
								}

							}
, 							{
								"patchline" : 								{
									"destination" : [ "obj-3", 1 ],
									"source" : [ "obj-2", 0 ]
								}

							}
, 							{
								"patchline" : 								{
									"destination" : [ "obj-4", 0 ],
									"source" : [ "obj-3", 0 ]
								}

							}
 ]
					}
,
					"patching_rect" : [ 403.5, 492.500030517578125, 49.0, 22.0 ],
					"text" : "jit.gl.pix"
				}

			}
, 			{
				"box" : 				{
					"annotation" : "## Change a videos brightness/contrast/separation ##",
					"bgmode" : 1,
					"border" : 0,
					"clickthrough" : 0,
					"enablehscroll" : 0,
					"enablevscroll" : 0,
					"id" : "obj-84",
					"lockeddragscroll" : 0,
					"maxclass" : "bpatcher",
					"name" : "vz.brcosr.maxpat",
					"numinlets" : 7,
					"numoutlets" : 1,
					"offset" : [ 0.0, 0.0 ],
					"outlettype" : [ "" ],
					"patching_rect" : [ 33.5, 676.80999755859375, 208.0, 130.0 ],
					"prototypename" : "pixl",
					"varname" : "brcosr",
					"viewvisibility" : 1
				}

			}
, 			{
				"box" : 				{
					"attr" : "locklook",
					"id" : "obj-139",
					"maxclass" : "attrui",
					"numinlets" : 1,
					"numoutlets" : 1,
					"outlettype" : [ "" ],
					"patching_rect" : [ 870.583251953125, 66.0, 100.5, 22.0 ],
					"text_width" : 69.5
				}

			}
, 			{
				"box" : 				{
					"attr" : "lookat",
					"id" : "obj-137",
					"maxclass" : "attrui",
					"numinlets" : 1,
					"numoutlets" : 1,
					"outlettype" : [ "" ],
					"patching_rect" : [ 848.333251953125, 42.0, 205.0, 22.0 ],
					"text_width" : 65.0
				}

			}
, 			{
				"box" : 				{
					"attr" : "position",
					"id" : "obj-135",
					"maxclass" : "attrui",
					"numinlets" : 1,
					"numoutlets" : 1,
					"outlettype" : [ "" ],
					"patching_rect" : [ 832.333251953125, 18.0, 213.0, 22.0 ],
					"text_width" : 74.0
				}

			}
, 			{
				"box" : 				{
					"id" : "obj-133",
					"maxclass" : "newobj",
					"numinlets" : 1,
					"numoutlets" : 2,
					"outlettype" : [ "jit_gl_texture", "" ],
					"patching_rect" : [ 832.333251953125, 116.0, 73.0, 22.0 ],
					"text" : "jit.gl.camera"
				}

			}
, 			{
				"box" : 				{
					"attr" : "rotatexyz",
					"id" : "obj-131",
					"maxclass" : "attrui",
					"numinlets" : 1,
					"numoutlets" : 1,
					"outlettype" : [ "" ],
					"patching_rect" : [ 608.0, 597.80999755859375, 221.0, 22.0 ],
					"text_width" : 77.0
				}

			}
, 			{
				"box" : 				{
					"attr" : "rotatexyz",
					"id" : "obj-103",
					"maxclass" : "attrui",
					"numinlets" : 1,
					"numoutlets" : 1,
					"outlettype" : [ "" ],
					"patching_rect" : [ 832.333251953125, 154.0, 221.0, 22.0 ],
					"text_width" : 70.0
				}

			}
, 			{
				"box" : 				{
					"attr" : "type",
					"id" : "obj-102",
					"maxclass" : "attrui",
					"numinlets" : 1,
					"numoutlets" : 1,
					"outlettype" : [ "" ],
					"patching_rect" : [ 856.0, 179.0, 150.0, 22.0 ],
					"text_width" : 70.0
				}

			}
, 			{
				"box" : 				{
					"id" : "obj-100",
					"maxclass" : "newobj",
					"numinlets" : 1,
					"numoutlets" : 1,
					"outlettype" : [ "" ],
					"patching_rect" : [ 832.333251953125, 238.0, 153.0, 22.0 ],
					"text" : "jit.gl.light @ambient 1 1 1 1"
				}

			}
, 			{
				"box" : 				{
					"id" : "obj-99",
					"maxclass" : "newobj",
					"numinlets" : 1,
					"numoutlets" : 2,
					"outlettype" : [ "", "" ],
					"patching_rect" : [ 293.5, 244.09521484375, 43.0, 22.0 ],
					"text" : "jit.time"
				}

			}
, 			{
				"box" : 				{
					"attr" : "white_point",
					"fontface" : 0,
					"fontname" : "Verdana",
					"fontsize" : 12.0,
					"id" : "obj-113",
					"maxclass" : "attrui",
					"numinlets" : 1,
					"numoutlets" : 1,
					"outlettype" : [ "" ],
					"patching_rect" : [ 832.333251953125, 443.09521484375, 150.0, 23.0 ]
				}

			}
, 			{
				"box" : 				{
					"attr" : "inv_gamma",
					"fontface" : 0,
					"fontname" : "Verdana",
					"fontsize" : 12.0,
					"id" : "obj-114",
					"maxclass" : "attrui",
					"numinlets" : 1,
					"numoutlets" : 1,
					"outlettype" : [ "" ],
					"patching_rect" : [ 832.333251953125, 418.09521484375, 150.0, 23.0 ]
				}

			}
, 			{
				"box" : 				{
					"attr" : "exposure_bias",
					"fontface" : 0,
					"fontname" : "Verdana",
					"fontsize" : 12.0,
					"id" : "obj-115",
					"maxclass" : "attrui",
					"numinlets" : 1,
					"numoutlets" : 1,
					"outlettype" : [ "" ],
					"patching_rect" : [ 832.333251953125, 393.09521484375, 150.0, 23.0 ],
					"text_width" : 111.0
				}

			}
, 			{
				"box" : 				{
					"attr" : "threshold",
					"fontface" : 0,
					"fontname" : "Verdana",
					"fontsize" : 12.0,
					"id" : "obj-111",
					"maxclass" : "attrui",
					"numinlets" : 1,
					"numoutlets" : 1,
					"outlettype" : [ "" ],
					"patching_rect" : [ 832.333251953125, 359.09521484375, 150.0, 23.0 ]
				}

			}
, 			{
				"box" : 				{
					"attr" : "blur_width",
					"fontface" : 0,
					"fontname" : "Verdana",
					"fontsize" : 12.0,
					"id" : "obj-92",
					"maxclass" : "attrui",
					"numinlets" : 1,
					"numoutlets" : 1,
					"outlettype" : [ "" ],
					"patching_rect" : [ 832.333251953125, 334.09521484375, 150.0, 23.0 ]
				}

			}
, 			{
				"box" : 				{
					"attr" : "bloom_amt",
					"fontface" : 0,
					"fontname" : "Verdana",
					"fontsize" : 12.0,
					"id" : "obj-112",
					"maxclass" : "attrui",
					"numinlets" : 1,
					"numoutlets" : 1,
					"outlettype" : [ "" ],
					"patching_rect" : [ 832.333251953125, 309.09521484375, 150.0, 23.0 ]
				}

			}
, 			{
				"box" : 				{
					"id" : "obj-110",
					"linecount" : 2,
					"maxclass" : "newobj",
					"numinlets" : 1,
					"numoutlets" : 3,
					"outlettype" : [ "jit_gl_texture", "", "" ],
					"patching_rect" : [ 832.333251953125, 272.09521484375, 306.0, 35.0 ],
					"text" : "jit.gl.pass @fxname bloom-tonemap @white_point 4.2 @exposure_bias 2.8 @inv_gamma 5."
				}

			}
, 			{
				"box" : 				{
					"attr" : "position",
					"id" : "obj-71",
					"maxclass" : "attrui",
					"numinlets" : 1,
					"numoutlets" : 1,
					"outlettype" : [ "" ],
					"patching_rect" : [ 608.0, 621.80999755859375, 221.0, 22.0 ],
					"text_width" : 77.0
				}

			}
, 			{
				"box" : 				{
					"format" : 6,
					"id" : "obj-69",
					"maxclass" : "flonum",
					"numinlets" : 1,
					"numoutlets" : 2,
					"outlettype" : [ "", "bang" ],
					"parameter_enable" : 0,
					"patching_rect" : [ 919.0, 574.80999755859375, 50.0, 22.0 ]
				}

			}
, 			{
				"box" : 				{
					"id" : "obj-67",
					"maxclass" : "message",
					"numinlets" : 2,
					"numoutlets" : 1,
					"outlettype" : [ "" ],
					"patching_rect" : [ 862.0, 574.80999755859375, 55.0, 22.0 ],
					"text" : "$1 $1 $1"
				}

			}
, 			{
				"box" : 				{
					"annotation" : "## Rotate/offset a video ##",
					"bgmode" : 1,
					"border" : 0,
					"clickthrough" : 0,
					"enablehscroll" : 0,
					"enablevscroll" : 0,
					"id" : "obj-65",
					"lockeddragscroll" : 0,
					"maxclass" : "bpatcher",
					"name" : "vz.rotatr.maxpat",
					"numinlets" : 5,
					"numoutlets" : 1,
					"offset" : [ 0.0, 0.0 ],
					"outlettype" : [ "" ],
					"patching_rect" : [ 33.5, 519.0, 248.0, 130.0 ],
					"prototypename" : "pixl",
					"varname" : "rotatr",
					"viewvisibility" : 1
				}

			}
, 			{
				"box" : 				{
					"annotation" : "## Scale VIZZIE video output ##",
					"bgmode" : 1,
					"border" : 0,
					"clickthrough" : 0,
					"enablehscroll" : 0,
					"enablevscroll" : 0,
					"id" : "obj-64",
					"lockeddragscroll" : 0,
					"maxclass" : "bpatcher",
					"name" : "vz.zoomr.maxpat",
					"numinlets" : 4,
					"numoutlets" : 1,
					"offset" : [ 0.0, 0.0 ],
					"outlettype" : [ "" ],
					"patching_rect" : [ 33.5, 386.0, 158.0, 130.0 ],
					"prototypename" : "pixl",
					"varname" : "zoomr",
					"viewvisibility" : 1
				}

			}
, 			{
				"box" : 				{
					"attr" : "automatic",
					"id" : "obj-53",
					"maxclass" : "attrui",
					"numinlets" : 1,
					"numoutlets" : 1,
					"outlettype" : [ "" ],
					"patching_rect" : [ 712.3699951171875, 705.80999755859375, 105.0, 22.0 ],
					"text_width" : 77.0
				}

			}
, 			{
				"box" : 				{
					"attr" : "scale",
					"id" : "obj-51",
					"maxclass" : "attrui",
					"numinlets" : 1,
					"numoutlets" : 1,
					"outlettype" : [ "" ],
					"patching_rect" : [ 608.0, 574.80999755859375, 252.0, 22.0 ],
					"text_width" : 56.0
				}

			}
, 			{
				"box" : 				{
					"attr" : "shape",
					"id" : "obj-50",
					"maxclass" : "attrui",
					"numinlets" : 1,
					"numoutlets" : 1,
					"outlettype" : [ "" ],
					"patching_rect" : [ 586.3699951171875, 705.80999755859375, 124.0, 22.0 ],
					"text_width" : 62.6300048828125
				}

			}
, 			{
				"box" : 				{
					"id" : "obj-43",
					"linecount" : 2,
					"maxclass" : "newobj",
					"numinlets" : 1,
					"numoutlets" : 2,
					"outlettype" : [ "jit_gl_texture", "" ],
					"patching_rect" : [ 403.5, 519.0, 226.0, 35.0 ],
					"text" : "jit.gl.texture @type float32 @rectangle 0 @adapt 0 @dim 1024 1024"
				}

			}
, 			{
				"box" : 				{
					"id" : "obj-31",
					"maxclass" : "newobj",
					"numinlets" : 1,
					"numoutlets" : 1,
					"outlettype" : [ "bang" ],
					"patching_rect" : [ 524.0, 705.80999755859375, 60.0, 22.0 ],
					"text" : "loadbang"
				}

			}
, 			{
				"box" : 				{
					"id" : "obj-40",
					"maxclass" : "newobj",
					"numinlets" : 9,
					"numoutlets" : 2,
					"outlettype" : [ "jit_matrix", "" ],
					"patching_rect" : [ 318.0, 772.80999755859375, 627.0, 22.0 ],
					"text" : "jit.gl.mesh @auto_tangents 1 @scale 20. 20. 2. @rotatexyz -79. 0. 0. @position 0. -8. -30. @cache_mode displaylist"
				}

			}
, 			{
				"box" : 				{
					"id" : "obj-41",
					"maxclass" : "newobj",
					"numinlets" : 8,
					"numoutlets" : 2,
					"outlettype" : [ "", "" ],
					"patching_rect" : [ 318.0, 636.80999755859375, 251.0, 22.0 ],
					"text" : "jit.gl.material @heightmap_mode vtf_normals"
				}

			}
, 			{
				"box" : 				{
					"id" : "obj-42",
					"maxclass" : "newobj",
					"numinlets" : 1,
					"numoutlets" : 2,
					"outlettype" : [ "jit_matrix", "" ],
					"patching_rect" : [ 524.0, 737.80999755859375, 431.0, 22.0 ],
					"text" : "jit.gl.gridshape @shape plane @dim 1024 1024 @automatic 0 @matrixoutput 1"
				}

			}
, 			{
				"box" : 				{
					"id" : "obj-26",
					"maxclass" : "comment",
					"numinlets" : 1,
					"numoutlets" : 0,
					"patching_rect" : [ 71.0, 287.09521484375, 150.0, 20.0 ],
					"text" : "h, lacunarity, offset, gain"
				}

			}
, 			{
				"box" : 				{
					"attr" : "fractal_params",
					"id" : "obj-15",
					"maxclass" : "attrui",
					"numinlets" : 1,
					"numoutlets" : 1,
					"outlettype" : [ "" ],
					"patching_rect" : [ 71.0, 309.09521484375, 342.0, 22.0 ]
				}

			}
, 			{
				"box" : 				{
					"attr" : "zoom",
					"id" : "obj-9",
					"maxclass" : "attrui",
					"numinlets" : 1,
					"numoutlets" : 1,
					"outlettype" : [ "" ],
					"patching_rect" : [ 71.0, 193.59521484375, 115.0, 22.0 ],
					"text_width" : 56.0
				}

			}
, 			{
				"box" : 				{
					"attr" : "time",
					"id" : "obj-27",
					"maxclass" : "attrui",
					"numinlets" : 1,
					"numoutlets" : 1,
					"outlettype" : [ "" ],
					"patching_rect" : [ 342.0, 268.09521484375, 101.0, 22.0 ],
					"text_width" : 49.0
				}

			}
, 			{
				"box" : 				{
					"attr" : "offset",
					"id" : "obj-24",
					"maxclass" : "attrui",
					"numinlets" : 1,
					"numoutlets" : 1,
					"outlettype" : [ "" ],
					"patching_rect" : [ 71.0, 254.59521484375, 150.0, 22.0 ],
					"text_width" : 52.0
				}

			}
, 			{
				"box" : 				{
					"attr" : "basis",
					"id" : "obj-5",
					"maxclass" : "attrui",
					"numinlets" : 1,
					"numoutlets" : 1,
					"outlettype" : [ "" ],
					"patching_rect" : [ 71.0, 164.09521484375, 203.333343505859375, 22.0 ],
					"text_width" : 55.333343505859375
				}

			}
, 			{
				"box" : 				{
					"id" : "obj-28",
					"maxclass" : "toggle",
					"numinlets" : 1,
					"numoutlets" : 1,
					"outlettype" : [ "int" ],
					"parameter_enable" : 0,
					"patching_rect" : [ 23.0, 21.0, 24.0, 24.0 ]
				}

			}
, 			{
				"box" : 				{
					"fontface" : 0,
					"fontname" : "Arial",
					"fontsize" : 12.0,
					"id" : "obj-23",
					"maxclass" : "jit.fpsgui",
					"numinlets" : 1,
					"numoutlets" : 2,
					"outlettype" : [ "", "" ],
					"patching_rect" : [ 23.0, 92.0, 80.0, 35.0 ]
				}

			}
, 			{
				"box" : 				{
					"attr" : "enable",
					"displaymode" : 8,
					"id" : "obj-22",
					"maxclass" : "attrui",
					"numinlets" : 1,
					"numoutlets" : 1,
					"outlettype" : [ "" ],
					"patching_rect" : [ 293.5, 193.09521484375, 94.0, 22.0 ],
					"text_width" : 68.0
				}

			}
, 			{
				"box" : 				{
					"attr" : "speed",
					"id" : "obj-11",
					"maxclass" : "attrui",
					"numinlets" : 1,
					"numoutlets" : 1,
					"outlettype" : [ "" ],
					"patching_rect" : [ 460.0, 164.09521484375, 113.0, 22.0 ],
					"text_width" : 66.0
				}

			}
, 			{
				"box" : 				{
					"id" : "obj-8",
					"maxclass" : "newobj",
					"numinlets" : 1,
					"numoutlets" : 2,
					"outlettype" : [ "", "" ],
					"patching_rect" : [ 342.0, 244.09521484375, 43.0, 22.0 ],
					"text" : "jit.time"
				}

			}
, 			{
				"box" : 				{
					"id" : "obj-3",
					"maxclass" : "newobj",
					"numinlets" : 1,
					"numoutlets" : 2,
					"outlettype" : [ "jit_gl_texture", "" ],
					"patching_rect" : [ 33.5, 133.0, 242.0, 22.0 ],
					"text" : "jit.gl.texture @dim 1024 1024 @type float32"
				}

			}
, 			{
				"box" : 				{
					"id" : "obj-2",
					"maxclass" : "newobj",
					"numinlets" : 2,
					"numoutlets" : 2,
					"outlettype" : [ "jit_gl_texture", "" ],
					"patching_rect" : [ 33.5, 341.25, 111.0, 22.0 ],
					"text" : "jit.gl.bfg @zoom 10"
				}

			}
, 			{
				"box" : 				{
					"id" : "obj-1",
					"maxclass" : "newobj",
					"numinlets" : 1,
					"numoutlets" : 3,
					"outlettype" : [ "", "bang", "" ],
					"patching_rect" : [ 23.0, 64.0, 123.0, 22.0 ],
					"text" : "jit.world w @enable 1"
				}

			}
, 			{
				"box" : 				{
					"id" : "obj-25",
					"maxclass" : "message",
					"numinlets" : 2,
					"numoutlets" : 1,
					"outlettype" : [ "" ],
					"patching_rect" : [ 293.5, 164.09521484375, 35.0, 22.0 ],
					"text" : "reset"
				}

			}
, 			{
				"box" : 				{
					"attr" : "scale",
					"id" : "obj-13",
					"maxclass" : "attrui",
					"numinlets" : 1,
					"numoutlets" : 1,
					"outlettype" : [ "" ],
					"patching_rect" : [ 71.0, 224.59521484375, 150.0, 22.0 ],
					"text_width" : 54.0
				}

			}
 ],
		"lines" : [ 			{
				"patchline" : 				{
					"destination" : [ "obj-23", 0 ],
					"order" : 1,
					"source" : [ "obj-1", 1 ]
				}

			}
, 			{
				"patchline" : 				{
					"destination" : [ "obj-3", 0 ],
					"order" : 0,
					"source" : [ "obj-1", 1 ]
				}

			}
, 			{
				"patchline" : 				{
					"destination" : [ "obj-100", 0 ],
					"source" : [ "obj-102", 0 ]
				}

			}
, 			{
				"patchline" : 				{
					"destination" : [ "obj-100", 0 ],
					"source" : [ "obj-103", 0 ]
				}

			}
, 			{
				"patchline" : 				{
					"destination" : [ "obj-8", 0 ],
					"source" : [ "obj-11", 0 ]
				}

			}
, 			{
				"patchline" : 				{
					"destination" : [ "obj-110", 0 ],
					"source" : [ "obj-111", 0 ]
				}

			}
, 			{
				"patchline" : 				{
					"destination" : [ "obj-110", 0 ],
					"source" : [ "obj-112", 0 ]
				}

			}
, 			{
				"patchline" : 				{
					"destination" : [ "obj-110", 0 ],
					"source" : [ "obj-113", 0 ]
				}

			}
, 			{
				"patchline" : 				{
					"destination" : [ "obj-110", 0 ],
					"source" : [ "obj-114", 0 ]
				}

			}
, 			{
				"patchline" : 				{
					"destination" : [ "obj-110", 0 ],
					"source" : [ "obj-115", 0 ]
				}

			}
, 			{
				"patchline" : 				{
					"destination" : [ "obj-2", 0 ],
					"source" : [ "obj-13", 0 ]
				}

			}
, 			{
				"patchline" : 				{
					"destination" : [ "obj-40", 0 ],
					"source" : [ "obj-131", 0 ]
				}

			}
, 			{
				"patchline" : 				{
					"destination" : [ "obj-133", 0 ],
					"source" : [ "obj-135", 0 ]
				}

			}
, 			{
				"patchline" : 				{
					"destination" : [ "obj-133", 0 ],
					"source" : [ "obj-137", 0 ]
				}

			}
, 			{
				"patchline" : 				{
					"destination" : [ "obj-133", 0 ],
					"source" : [ "obj-139", 0 ]
				}

			}
, 			{
				"patchline" : 				{
					"destination" : [ "obj-2", 0 ],
					"source" : [ "obj-15", 0 ]
				}

			}
, 			{
				"patchline" : 				{
					"destination" : [ "obj-43", 0 ],
					"source" : [ "obj-158", 0 ]
				}

			}
, 			{
				"patchline" : 				{
					"destination" : [ "obj-99", 0 ],
					"source" : [ "obj-16", 0 ]
				}

			}
, 			{
				"patchline" : 				{
					"destination" : [ "obj-158", 0 ],
					"source" : [ "obj-162", 0 ]
				}

			}
, 			{
				"patchline" : 				{
					"destination" : [ "obj-1", 0 ],
					"source" : [ "obj-164", 0 ]
				}

			}
, 			{
				"patchline" : 				{
					"destination" : [ "obj-100", 0 ],
					"source" : [ "obj-18", 0 ]
				}

			}
, 			{
				"patchline" : 				{
					"destination" : [ "obj-64", 0 ],
					"source" : [ "obj-2", 0 ]
				}

			}
, 			{
				"patchline" : 				{
					"destination" : [ "obj-8", 0 ],
					"order" : 0,
					"source" : [ "obj-22", 0 ]
				}

			}
, 			{
				"patchline" : 				{
					"destination" : [ "obj-99", 0 ],
					"order" : 1,
					"source" : [ "obj-22", 0 ]
				}

			}
, 			{
				"patchline" : 				{
					"destination" : [ "obj-2", 0 ],
					"source" : [ "obj-24", 0 ]
				}

			}
, 			{
				"patchline" : 				{
					"destination" : [ "obj-8", 0 ],
					"order" : 0,
					"source" : [ "obj-25", 0 ]
				}

			}
, 			{
				"patchline" : 				{
					"destination" : [ "obj-99", 0 ],
					"order" : 1,
					"source" : [ "obj-25", 0 ]
				}

			}
, 			{
				"patchline" : 				{
					"destination" : [ "obj-2", 0 ],
					"source" : [ "obj-27", 0 ]
				}

			}
, 			{
				"patchline" : 				{
					"destination" : [ "obj-1", 0 ],
					"source" : [ "obj-28", 0 ]
				}

			}
, 			{
				"patchline" : 				{
					"destination" : [ "obj-2", 0 ],
					"source" : [ "obj-3", 0 ]
				}

			}
, 			{
				"patchline" : 				{
					"destination" : [ "obj-42", 0 ],
					"source" : [ "obj-31", 0 ]
				}

			}
, 			{
				"patchline" : 				{
					"destination" : [ "obj-2", 0 ],
					"source" : [ "obj-33", 0 ]
				}

			}
, 			{
				"patchline" : 				{
					"destination" : [ "obj-2", 0 ],
					"source" : [ "obj-34", 0 ]
				}

			}
, 			{
				"patchline" : 				{
					"destination" : [ "obj-2", 0 ],
					"source" : [ "obj-35", 0 ]
				}

			}
, 			{
				"patchline" : 				{
					"destination" : [ "obj-2", 0 ],
					"source" : [ "obj-36", 0 ]
				}

			}
, 			{
				"patchline" : 				{
					"destination" : [ "obj-2", 0 ],
					"source" : [ "obj-37", 0 ]
				}

			}
, 			{
				"patchline" : 				{
					"destination" : [ "obj-40", 0 ],
					"source" : [ "obj-41", 0 ]
				}

			}
, 			{
				"patchline" : 				{
					"destination" : [ "obj-40", 0 ],
					"source" : [ "obj-42", 0 ]
				}

			}
, 			{
				"patchline" : 				{
					"destination" : [ "obj-41", 6 ],
					"source" : [ "obj-43", 0 ]
				}

			}
, 			{
				"patchline" : 				{
					"destination" : [ "obj-2", 0 ],
					"source" : [ "obj-5", 0 ]
				}

			}
, 			{
				"patchline" : 				{
					"destination" : [ "obj-42", 0 ],
					"source" : [ "obj-50", 0 ]
				}

			}
, 			{
				"patchline" : 				{
					"destination" : [ "obj-40", 0 ],
					"source" : [ "obj-51", 0 ]
				}

			}
, 			{
				"patchline" : 				{
					"destination" : [ "obj-2", 0 ],
					"source" : [ "obj-52", 0 ]
				}

			}
, 			{
				"patchline" : 				{
					"destination" : [ "obj-42", 0 ],
					"source" : [ "obj-53", 0 ]
				}

			}
, 			{
				"patchline" : 				{
					"destination" : [ "obj-2", 0 ],
					"source" : [ "obj-54", 0 ]
				}

			}
, 			{
				"patchline" : 				{
					"destination" : [ "obj-2", 0 ],
					"source" : [ "obj-55", 0 ]
				}

			}
, 			{
				"patchline" : 				{
					"destination" : [ "obj-2", 0 ],
					"source" : [ "obj-57", 0 ]
				}

			}
, 			{
				"patchline" : 				{
					"destination" : [ "obj-2", 0 ],
					"source" : [ "obj-58", 0 ]
				}

			}
, 			{
				"patchline" : 				{
					"destination" : [ "obj-65", 0 ],
					"source" : [ "obj-64", 0 ]
				}

			}
, 			{
				"patchline" : 				{
					"destination" : [ "obj-41", 0 ],
					"order" : 0,
					"source" : [ "obj-65", 0 ]
				}

			}
, 			{
				"patchline" : 				{
					"destination" : [ "obj-84", 0 ],
					"order" : 1,
					"source" : [ "obj-65", 0 ]
				}

			}
, 			{
				"patchline" : 				{
					"destination" : [ "obj-51", 0 ],
					"source" : [ "obj-67", 0 ]
				}

			}
, 			{
				"patchline" : 				{
					"destination" : [ "obj-67", 0 ],
					"source" : [ "obj-69", 0 ]
				}

			}
, 			{
				"patchline" : 				{
					"destination" : [ "obj-40", 0 ],
					"source" : [ "obj-71", 0 ]
				}

			}
, 			{
				"patchline" : 				{
					"destination" : [ "obj-27", 0 ],
					"source" : [ "obj-8", 0 ]
				}

			}
, 			{
				"patchline" : 				{
					"destination" : [ "obj-158", 0 ],
					"source" : [ "obj-84", 0 ]
				}

			}
, 			{
				"patchline" : 				{
					"destination" : [ "obj-2", 0 ],
					"source" : [ "obj-9", 0 ]
				}

			}
, 			{
				"patchline" : 				{
					"destination" : [ "obj-110", 0 ],
					"source" : [ "obj-92", 0 ]
				}

			}
, 			{
				"patchline" : 				{
					"destination" : [ "obj-24", 0 ],
					"source" : [ "obj-99", 0 ]
				}

			}
 ],
		"parameters" : 		{
			"obj-84::obj-147" : [ "pictctrl[46]", "pictctrl[1]", 0 ],
			"obj-64::obj-1" : [ "range[6]", "range", 0 ],
			"obj-84::obj-120" : [ "range", "range", 0 ],
			"obj-65::obj-78" : [ "x offset[1]", "x offset", 0 ],
			"obj-64::obj-104" : [ "pictctrl[13]", "pictctrl[1]", 0 ],
			"obj-65::obj-77" : [ "y offset[1]", "y offset", 0 ],
			"obj-84::obj-150" : [ "pictctrl[43]", "pictctrl[1]", 0 ],
			"obj-65::obj-26" : [ "pictctrl[60]", "pictctrl[1]", 0 ],
			"obj-65::obj-75" : [ "pictctrl[59]", "pictctrl[1]", 0 ],
			"obj-64::obj-119" : [ "zoom[6]", "zoom", 0 ],
			"obj-84::obj-6" : [ "range[9]", "range", 0 ],
			"obj-64::obj-66" : [ "pictctrl[11]", "pictctrl[1]", 0 ],
			"obj-64::obj-39" : [ "live.dial[3]", "live.dial", 0 ],
			"obj-84::obj-119" : [ "brightness", "brightness", 0 ],
			"obj-65::obj-48" : [ "rotation", "rotation", 0 ],
			"obj-65::obj-28" : [ "pictctrl[57]", "pictctrl[1]", 0 ],
			"obj-64::obj-120" : [ "range[7]", "range", 0 ],
			"obj-84::obj-151" : [ "pictctrl[42]", "pictctrl[1]", 0 ],
			"obj-64::obj-2" : [ "umenu[4]", "umenu", 0 ],
			"obj-84::obj-140" : [ "saturation", "saturation", 0 ],
			"obj-84::obj-121" : [ "brightness[1]", "brightness", 0 ],
			"obj-84::obj-148" : [ "pictctrl[45]", "pictctrl[1]", 0 ],
			"obj-84::obj-142" : [ "saturation[1]", "saturation", 0 ],
			"obj-64::obj-121" : [ "zoom[7]", "zoom", 0 ],
			"obj-64::obj-51" : [ "pictctrl[12]", "pictctrl[1]", 0 ],
			"obj-84::obj-128" : [ "range[1]", "range", 0 ],
			"obj-84::obj-141" : [ "range[2]", "range", 0 ],
			"obj-84::obj-127" : [ "contrast[1]", "contrast", 0 ],
			"obj-65::obj-74" : [ "pictctrl[58]", "pictctrl[1]", 0 ],
			"obj-65::obj-19" : [ "range[8]", "range", 0 ],
			"obj-84::obj-149" : [ "pictctrl[44]", "pictctrl[1]", 0 ],
			"obj-84::obj-104" : [ "pictctrl[9]", "pictctrl[1]", 0 ],
			"obj-84::obj-129" : [ "contrast", "contrast", 0 ],
			"obj-65::obj-51" : [ "umenu[12]", "umenu", 0 ],
			"parameterbanks" : 			{

			}
,
			"parameter_overrides" : 			{
				"obj-84::obj-151" : 				{
					"parameter_longname" : "pictctrl[42]"
				}
,
				"obj-84::obj-121" : 				{
					"parameter_longname" : "brightness[1]"
				}
,
				"obj-84::obj-104" : 				{
					"parameter_longname" : "pictctrl[9]"
				}

			}

		}
,
		"dependency_cache" : [ 			{
				"name" : "vz.zoomr.maxpat",
				"bootpath" : "C74:/packages/vizzie/patchers",
				"type" : "JSON",
				"implicit" : 1
			}
, 			{
				"name" : "video-handler.maxpat",
				"bootpath" : "C74:/packages/vizzie/patchers",
				"type" : "JSON",
				"implicit" : 1
			}
, 			{
				"name" : "data-handler.maxpat",
				"bootpath" : "C74:/packages/vizzie/patchers",
				"type" : "JSON",
				"implicit" : 1
			}
, 			{
				"name" : "vzgl-object.maxpat",
				"bootpath" : "C74:/packages/vizzie/patchers",
				"type" : "JSON",
				"implicit" : 1
			}
, 			{
				"name" : "vizzie-global.js",
				"bootpath" : "C74:/packages/vizzie/code",
				"type" : "TEXT",
				"implicit" : 1
			}
, 			{
				"name" : "vzgl-routemat.maxpat",
				"bootpath" : "C74:/packages/vizzie/patchers",
				"type" : "JSON",
				"implicit" : 1
			}
, 			{
				"name" : "vzgl-disable.maxpat",
				"bootpath" : "C74:/packages/vizzie/patchers",
				"type" : "JSON",
				"implicit" : 1
			}
, 			{
				"name" : "vz.rotatr.maxpat",
				"bootpath" : "C74:/packages/vizzie/patchers",
				"type" : "JSON",
				"implicit" : 1
			}
, 			{
				"name" : "vz.brcosr.maxpat",
				"bootpath" : "C74:/packages/vizzie/patchers",
				"type" : "JSON",
				"implicit" : 1
			}
, 			{
				"name" : "brcosa.genjit",
				"bootpath" : "~/Library/Application Support/Cycling '74/Max 8/Examples/jitter-examples/gen",
				"patcherrelativepath" : "../../../../../Library/Application Support/Cycling '74/Max 8/Examples/jitter-examples/gen",
				"type" : "gJIT",
				"implicit" : 1
			}
, 			{
				"name" : "jit.mo.time.mxo",
				"type" : "iLaX"
			}
 ],
		"autosave" : 0,
		"snapshot" : 		{
			"filetype" : "C74Snapshot",
			"version" : 2,
			"minorversion" : 0,
			"name" : "snapshotlist",
			"origin" : "jpatcher",
			"type" : "list",
			"subtype" : "Undefined",
			"embed" : 1,
			"snapshot" : 			{
				"valuedictionary" : 				{
					"parameter_values" : 					{
						"brightness" : 5.0,
						"brightness[1]" : 0.779527559055118,
						"contrast" : -1.0,
						"contrast[1]" : 5.0,
						"live.dial[3]" : 0.0,
						"pictctrl[11]" : 1.0,
						"pictctrl[12]" : 1.0,
						"pictctrl[13]" : 1.0,
						"pictctrl[42]" : 1.0,
						"pictctrl[43]" : 1.0,
						"pictctrl[44]" : 1.0,
						"pictctrl[45]" : 1.0,
						"pictctrl[46]" : 1.0,
						"pictctrl[57]" : 1.0,
						"pictctrl[58]" : 1.0,
						"pictctrl[59]" : 1.0,
						"pictctrl[60]" : 1.0,
						"pictctrl[9]" : 1.0,
						"rotation" : 270.0,
						"saturation" : -8.0,
						"saturation[1]" : 0.15,
						"umenu[12]" : 3.0,
						"umenu[4]" : 3.0,
						"x offset[1]" : 0.0,
						"y offset[1]" : 0.0,
						"zoom[6]" : 11.212598425196859,
						"zoom[7]" : 1.0,
						"blob" : 						{
							"range" : [ 1 ],
							"range[1]" : [ 1 ],
							"range[2]" : [ 0 ],
							"range[6]" : [ 1 ],
							"range[7]" : [ 0 ],
							"range[8]" : [ 1 ],
							"range[9]" : [ 1 ]
						}

					}

				}

			}
,
			"snapshotlist" : 			{
				"current_snapshot" : 1,
				"entries" : [ 					{
						"filetype" : "C74Snapshot",
						"version" : 2,
						"minorversion" : 0,
						"name" : "gl-bfg-test-large",
						"origin" : "gl-bfg-test-large",
						"type" : "patcher",
						"subtype" : "Undefined",
						"embed" : 1,
						"snapshot" : 						{
							"valuedictionary" : 							{
								"parameter_values" : 								{
									"FreqMode[4]" : 0.0,
									"bleed" : 0.0,
									"brightness" : 2.763779527559057,
									"brightness[1]" : 0.779527559055118,
									"contrast" : -1.0,
									"contrast[1]" : 8.0,
									"feedback" : 0.614173228346456,
									"feedforward" : 0.409448818897638,
									"gain" : 1.0,
									"live.dial[3]" : 0.0,
									"pictctrl[11]" : 1.0,
									"pictctrl[12]" : 1.0,
									"pictctrl[13]" : 1.0,
									"pictctrl[17]" : 1.0,
									"pictctrl[19]" : 1.0,
									"pictctrl[1]" : 1.0,
									"pictctrl[20]" : 1.0,
									"pictctrl[21]" : 1.0,
									"pictctrl[22]" : 1.0,
									"pictctrl[23]" : 1.0,
									"pictctrl[2]" : 1.0,
									"pictctrl[3]" : 1.0,
									"pictctrl[42]" : 1.0,
									"pictctrl[43]" : 1.0,
									"pictctrl[44]" : 1.0,
									"pictctrl[45]" : 1.0,
									"pictctrl[46]" : 1.0,
									"pictctrl[4]" : 1.0,
									"pictctrl[57]" : 1.0,
									"pictctrl[58]" : 1.0,
									"pictctrl[59]" : 1.0,
									"pictctrl[5]" : 1.0,
									"pictctrl[60]" : 1.0,
									"pictctrl[6]" : 1.0,
									"pictctrl[7]" : 1.0,
									"pictctrl[9]" : 1.0,
									"probability" : 17.32283464566925,
									"rotation" : 270.0,
									"saturation" : -8.0,
									"saturation[1]" : -0.984251968503937,
									"umenu[12]" : 3.0,
									"umenu[4]" : 0.0,
									"x offset[1]" : 0.0,
									"x range" : 3.937007874015748,
									"y offset[1]" : 0.0,
									"y range" : 3.149606299212598,
									"zoom[6]" : 11.116489794161552,
									"zoom[7]" : 1.003937007874015,
									"blob" : 									{
										"range" : [ 1 ],
										"range[1]" : [ 1 ],
										"range[2]" : [ 0 ],
										"range[4]" : [ 0 ],
										"range[5]" : [ 0 ],
										"range[6]" : [ 1 ],
										"range[7]" : [ 0 ],
										"range[8]" : [ 1 ],
										"range[9]" : [ 1 ],
										"swatch" : [ 0.595238095238095, 0.223214285714286, 0.0, 1.0, 0.0625, 1.0, 0.297619047619048 ],
										"textbutton[14]" : [ 1 ]
									}

								}

							}

						}
,
						"fileref" : 						{
							"name" : "gl-bfg-test-large",
							"filename" : "gl-bfg-test-large.maxsnap",
							"filepath" : "~/Documents/Max 8/Snapshots",
							"filepos" : -1,
							"snapshotfileid" : "10a372a16830d010e93203538b73202b"
						}

					}
, 					{
						"filetype" : "C74Snapshot",
						"version" : 2,
						"minorversion" : 0,
						"name" : "gl-bfg-test-large[1]",
						"origin" : "gl-bfg-test-large",
						"type" : "patcher",
						"subtype" : "Undefined",
						"embed" : 1,
						"snapshot" : 						{
							"valuedictionary" : 							{
								"parameter_values" : 								{
									"brightness" : 5.0,
									"brightness[1]" : 0.779527559055118,
									"contrast" : -1.0,
									"contrast[1]" : 5.0,
									"live.dial[3]" : 0.0,
									"pictctrl[11]" : 1.0,
									"pictctrl[12]" : 1.0,
									"pictctrl[13]" : 1.0,
									"pictctrl[42]" : 1.0,
									"pictctrl[43]" : 1.0,
									"pictctrl[44]" : 1.0,
									"pictctrl[45]" : 1.0,
									"pictctrl[46]" : 1.0,
									"pictctrl[57]" : 1.0,
									"pictctrl[58]" : 1.0,
									"pictctrl[59]" : 1.0,
									"pictctrl[60]" : 1.0,
									"pictctrl[9]" : 1.0,
									"rotation" : 270.0,
									"saturation" : -8.0,
									"saturation[1]" : 0.15,
									"umenu[12]" : 3.0,
									"umenu[4]" : 3.0,
									"x offset[1]" : 0.0,
									"y offset[1]" : 0.0,
									"zoom[6]" : 11.212598425196859,
									"zoom[7]" : 1.0,
									"blob" : 									{
										"range" : [ 1 ],
										"range[1]" : [ 1 ],
										"range[2]" : [ 0 ],
										"range[6]" : [ 1 ],
										"range[7]" : [ 0 ],
										"range[8]" : [ 1 ],
										"range[9]" : [ 1 ]
									}

								}

							}

						}
,
						"fileref" : 						{
							"name" : "gl-bfg-test-large[1]",
							"filename" : "gl-bfg-test-large[1].maxsnap",
							"filepath" : "~/Documents/Max 8/Snapshots",
							"filepos" : -1,
							"snapshotfileid" : "bafea0907c75616223275e132b4b7819"
						}

					}
 ]
			}

		}
,
		"boxgroups" : [ 			{
				"boxes" : [ "obj-133", "obj-139", "obj-135", "obj-137" ]
			}
, 			{
				"boxes" : [ "obj-5", "obj-9", "obj-13", "obj-24", "obj-26", "obj-15" ]
			}
, 			{
				"boxes" : [ "obj-27", "obj-8", "obj-22", "obj-99", "obj-25", "obj-11", "obj-16" ]
			}
, 			{
				"boxes" : [ "obj-110", "obj-112", "obj-92", "obj-111", "obj-115", "obj-114", "obj-113" ]
			}
, 			{
				"boxes" : [ "obj-102", "obj-100", "obj-103" ]
			}
 ]
	}

}
